<svg width="35" height="35" viewBox="0 0 601 534" fill="none" xmlns="http://www.w3.org/2000/svg">
<g clip-path="url(#clip0_129_82)">
<path d="M509.855 470.599L441.53 422.273C464.573 399.826 485.532 367.862 505.576 331.722L573.9 380.048C546.599 411.054 523.471 441.484 509.855 470.599Z" fill="#EF4444"/>
<path d="M509.855 470.599L441.53 422.273C464.573 399.826 485.532 367.862 505.576 331.722L573.9 380.048C546.599 411.054 523.471 441.484 509.855 470.599Z" stroke="#FF1414"/>
<path d="M509.873 419.148C521.01 419.148 530.039 410.119 530.039 398.982C530.039 387.845 521.01 378.816 509.873 378.816C498.736 378.816 489.708 387.845 489.708 398.982C489.708 410.119 498.736 419.148 509.873 419.148Z" fill="white"/>
<path d="M180.262 250.078H172.762C172.499 250.078 172.246 250.183 172.059 250.369C171.873 250.556 171.768 250.809 171.768 251.072V254.364C171.768 254.495 171.794 254.624 171.844 254.745C171.894 254.866 171.967 254.975 172.059 255.068C172.152 255.16 172.261 255.233 172.382 255.283C172.503 255.333 172.632 255.359 172.762 255.359H174.005V260.291H179.02V255.359H180.262C180.526 255.359 180.779 255.254 180.965 255.068C181.152 254.881 181.257 254.628 181.257 254.364V251.072C181.257 250.809 181.152 250.556 180.965 250.369C180.779 250.183 180.526 250.078 180.262 250.078Z" fill="#E6E6E6"/>
<path d="M187.775 280.206C183.181 273.485 180.833 265.483 181.067 257.345C181.071 257.158 181.01 256.974 180.894 256.826C180.779 256.678 180.615 256.575 180.432 256.534V255.111H172.511V256.514H172.402C172.295 256.514 172.189 256.535 172.091 256.576C171.992 256.617 171.903 256.677 171.827 256.753C171.752 256.828 171.692 256.918 171.652 257.017C171.611 257.115 171.59 257.221 171.59 257.328C171.59 257.348 171.591 257.367 171.592 257.387C172.323 265.69 170.083 273.984 165.271 280.79C164.992 281.186 164.85 281.663 164.865 282.147L165.731 308.939C165.752 309.536 166.003 310.103 166.432 310.52C166.86 310.937 167.433 311.172 168.031 311.177H185.947C186.552 311.172 187.131 310.931 187.56 310.506C187.99 310.08 188.237 309.504 188.248 308.899L188.582 282.887C188.591 281.932 188.31 280.997 187.775 280.206Z" fill="#6C63FF"/>
<path opacity="0.2" d="M178.699 251.151C178.699 251.72 178.473 252.265 178.07 252.668C177.668 253.07 177.122 253.296 176.553 253.296C175.985 253.296 175.439 253.07 175.037 252.668C174.634 252.265 174.408 251.72 174.408 251.151" fill="black"/>
<path d="M184.285 285.368H169.161V295.451H184.285V285.368Z" fill="white"/>
<path d="M417.602 354.742H403.563C403.069 354.742 402.596 354.938 402.247 355.287C401.898 355.636 401.702 356.109 401.702 356.603V362.765C401.702 363.259 401.898 363.732 402.247 364.081C402.596 364.431 403.069 364.627 403.563 364.627H405.89V373.86H415.276V364.627H417.602C418.096 364.627 418.569 364.431 418.918 364.081C419.267 363.732 419.464 363.259 419.464 362.765V356.603C419.464 356.109 419.267 355.636 418.918 355.287C418.569 354.938 418.096 354.742 417.602 354.742Z" fill="#E6E6E6"/>
<path d="M431.664 411.139C423.066 398.558 418.67 383.578 419.107 368.345C419.115 367.994 419.001 367.651 418.784 367.374C418.568 367.097 418.262 366.903 417.919 366.826V364.164H403.092V366.789H402.887C402.688 366.79 402.49 366.829 402.305 366.906C402.121 366.983 401.953 367.095 401.812 367.236C401.671 367.378 401.559 367.546 401.483 367.73C401.407 367.915 401.368 368.113 401.368 368.313C401.368 368.35 401.369 368.386 401.372 368.423C402.54 384.707 398.596 399.309 389.539 412.231C389.018 412.974 388.751 413.865 388.78 414.772L390.401 464.923C390.44 466.042 390.91 467.102 391.712 467.883C392.514 468.664 393.586 469.105 394.706 469.113H428.243C429.375 469.104 430.458 468.653 431.263 467.857C432.067 467.06 432.529 465.981 432.55 464.849L433.174 416.156C433.193 414.369 432.666 412.619 431.664 411.139Z" fill="#EF4444"/>
<path d="M431.664 411.139C423.066 398.558 418.67 383.578 419.107 368.345C419.115 367.994 419.001 367.651 418.784 367.374C418.568 367.097 418.262 366.903 417.919 366.826V364.164H403.092V366.789H402.887C402.688 366.79 402.49 366.829 402.305 366.906C402.121 366.983 401.953 367.095 401.812 367.236C401.671 367.378 401.559 367.546 401.483 367.73C401.407 367.915 401.368 368.113 401.368 368.313C401.368 368.35 401.369 368.386 401.372 368.423C402.54 384.707 398.596 399.309 389.539 412.231C389.018 412.974 388.751 413.865 388.78 414.772L390.401 464.923C390.44 466.042 390.91 467.102 391.712 467.883C392.514 468.664 393.586 469.105 394.706 469.113H428.243C429.375 469.104 430.458 468.653 431.263 467.857C432.067 467.06 432.529 465.981 432.55 464.849L433.174 416.156C433.193 414.369 432.666 412.619 431.664 411.139Z" stroke="#FF1414"/>
<path opacity="0.2" d="M414.676 356.75C414.676 357.815 414.252 358.836 413.499 359.589C412.746 360.342 411.725 360.766 410.66 360.766C409.595 360.766 408.573 360.342 407.82 359.589C407.067 358.836 406.644 357.815 406.644 356.75" fill="black"/>
<path d="M426.355 427.797H397.164C396.731 427.797 396.304 427.891 395.912 428.071C395.519 428.252 395.17 428.515 394.889 428.843C394.608 429.171 394.4 429.556 394.282 429.971C394.163 430.387 394.136 430.823 394.201 431.25L398.613 459.923H423.943L429.301 431.347C429.382 430.914 429.367 430.469 429.256 430.042C429.146 429.616 428.943 429.219 428.661 428.88C428.38 428.542 428.028 428.269 427.629 428.082C427.23 427.894 426.795 427.797 426.355 427.797Z" fill="white"/>
<path d="M377.546 470.52H293.858C299.709 438.886 298.363 400.688 293.858 359.608H377.546C373.161 400.688 371.851 438.887 377.546 470.52Z" fill="#EF4444"/>
<path d="M377.546 470.52H293.858C299.709 438.886 298.363 400.688 293.858 359.608H377.546C373.161 400.688 371.851 438.887 377.546 470.52Z" stroke="#FF1414"/>
<path d="M336.206 432.205C347.343 432.205 356.372 423.176 356.372 412.039C356.372 400.902 347.343 391.874 336.206 391.874C325.069 391.874 316.041 400.902 316.041 412.039C316.041 423.176 325.069 432.205 336.206 432.205Z" fill="white"/>
<path d="M35.2432 121.466L54.0302 119.758L65.9861 90.7241L44.6371 78.7681L35.2432 121.466Z" fill="#FFB8B8"/>
<path d="M207.66 201.174C208.285 199.616 208.53 197.932 208.377 196.26C208.223 194.589 207.674 192.978 206.775 191.56C205.876 190.143 204.654 188.959 203.208 188.106C201.762 187.254 200.134 186.757 198.458 186.657L169.289 184.918L164.994 199.2L195.022 207.447C197.532 208.136 200.207 207.878 202.538 206.721C204.868 205.564 206.692 203.589 207.66 201.174Z" fill="#FFB8B8"/>
<path d="M176.339 207.687L176.018 180.887L111.225 170.549L61.3094 113.301C58.7124 110.323 55.1238 108.386 51.2085 107.851C47.2931 107.315 43.3165 108.217 40.0151 110.389C38.0163 111.704 36.3306 113.442 35.0774 115.481C33.8241 117.519 33.0338 119.807 32.7623 122.184C32.4908 124.562 32.7447 126.969 33.5061 129.238C34.2676 131.506 35.5179 133.579 37.1688 135.311L78.3484 185.989L176.339 207.687Z" fill="#EF4444"/>
<path d="M20.7256 509.167H37.8049L80.1681 317.633L124.055 376.802L149.674 504.897H165.9L162.484 367.408L105.268 220.526H48.9065C33.5042 248.401 21.4218 277.135 35.243 306.777L20.7256 509.167Z" fill="#2F2E41"/>
<path d="M139.204 520.8C139.015 521.404 138.958 522.042 139.034 522.67C139.111 523.299 139.321 523.904 139.65 524.445C139.979 524.986 140.419 525.451 140.941 525.808C141.464 526.166 142.057 526.408 142.68 526.518L184.473 533.935C186.125 534.237 187.83 533.925 189.267 533.057C190.704 532.188 191.773 530.824 192.274 529.222C192.761 527.691 192.693 526.037 192.082 524.551C191.471 523.065 190.355 521.842 188.932 521.096C179.742 516.378 171.834 509.502 165.883 501.058C161.29 505.335 156.156 504.933 150.704 501.781L144.922 502.504L139.204 520.8Z" fill="#2F2E41"/>
<path d="M12.8177 520.8C12.6288 521.404 12.5709 522.042 12.6477 522.67C12.7245 523.299 12.9343 523.904 13.2631 524.445C13.592 524.986 14.0323 525.451 14.5547 525.808C15.0772 526.166 15.6699 526.408 16.2932 526.518L58.0865 533.935C59.738 534.237 61.4429 533.925 62.8798 533.057C64.3168 532.188 65.3865 530.824 65.8873 529.222C66.3744 527.691 66.3064 526.037 65.6951 524.551C65.0839 523.065 63.9686 521.842 62.5451 521.096C53.3556 516.378 45.447 509.502 39.4967 501.058C34.9034 505.335 29.7694 504.933 24.3177 501.781L18.5353 502.504L12.8177 520.8Z" fill="#2F2E41"/>
<path d="M66.4125 101.398C79.6182 101.398 90.3235 90.6929 90.3235 77.4872C90.3235 64.2815 79.6182 53.5762 66.4125 53.5762C53.2068 53.5762 42.5015 64.2815 42.5015 77.4872C42.5015 90.6929 53.2068 101.398 66.4125 101.398Z" fill="#FFB8B8"/>
<path d="M45.0638 226.931L107.403 225.223L89.0955 167.604C100.473 149.364 89.0225 131.144 72.8176 112.927L60.0081 104.387L39.5129 102.679C30.6393 112.174 25.7839 124.735 25.9638 137.73C26.3696 165.556 31.2967 195.848 45.0638 226.931Z" fill="#EF4444"/>
<path d="M45.0638 226.931L107.403 225.223L89.0955 167.604C100.473 149.364 89.0225 131.144 72.8176 112.927L60.0081 104.387L39.5129 102.679C30.6393 112.174 25.7839 124.735 25.9638 137.73C26.3696 165.556 31.2967 195.848 45.0638 226.931Z" stroke="#FF1414"/>
<path d="M188.291 265.716C189.478 264.529 190.367 263.077 190.883 261.48C191.399 259.883 191.528 258.186 191.259 256.529C190.991 254.872 190.332 253.303 189.338 251.95C188.344 250.598 187.043 249.501 185.542 248.75L159.408 235.675L149.841 247.116L174.205 266.511C176.241 268.132 178.802 268.947 181.4 268.8C183.998 268.653 186.451 267.555 188.291 265.716Z" fill="#FFB8B8"/>
<path d="M156.933 259.382L167.18 234.617L111.679 199.623L88.3085 127.355C87.0925 123.595 84.555 120.403 81.166 118.371C77.777 116.338 73.7662 115.603 69.8766 116.301C67.5216 116.724 65.2881 117.658 63.3341 119.039C61.3801 120.42 59.7532 122.213 58.5685 124.292C57.3837 126.371 56.6699 128.684 56.4776 131.069C56.2854 133.454 56.6193 135.852 57.4557 138.094L75.3791 200.885L156.933 259.382Z" fill="#EF4444"/>
<path d="M156.933 259.382L167.18 234.617L111.679 199.623L88.3085 127.355C87.0925 123.595 84.555 120.403 81.166 118.371C77.777 116.338 73.7662 115.603 69.8766 116.301C67.5216 116.724 65.2881 117.658 63.3341 119.039C61.3801 120.42 59.7532 122.213 58.5685 124.292C57.3837 126.371 56.6699 128.684 56.4776 131.069C56.2854 133.454 56.6193 135.852 57.4557 138.094L75.3791 200.885L156.933 259.382Z" stroke="#FF1414"/>
<path d="M27.1304 68.0935C27.1304 77.3973 33.1726 91.8058 40.7938 97.9822C45.9216 102.138 52.6984 101.963 55.3112 96.2743C57.9915 90.4388 67.2307 76.722 83.4921 68.0935C105.17 56.5909 75.8045 36.9119 55.3112 39.9126C39.9116 42.1674 27.1304 52.5296 27.1304 68.0935Z" fill="#2F2E41"/>
<path d="M41.6477 55.2841C51.0803 55.2841 58.727 47.6374 58.727 38.2048C58.727 28.7722 51.0803 21.1255 41.6477 21.1255C32.215 21.1255 24.5684 28.7722 24.5684 38.2048C24.5684 47.6374 32.215 55.2841 41.6477 55.2841Z" fill="#2F2E41"/>
<path d="M61.2891 32.227C61.2874 27.9212 59.6584 23.7751 56.7286 20.6197C53.7988 17.4643 49.7846 15.5328 45.4907 15.2124C45.9151 15.1808 46.3393 15.1477 46.7717 15.1477C51.3014 15.1477 55.6455 16.9471 58.8485 20.1501C62.0515 23.3531 63.851 27.6973 63.851 32.227C63.851 36.7567 62.0515 41.1009 58.8485 44.3039C55.6455 47.5069 51.3014 49.3063 46.7717 49.3063C46.3393 49.3063 45.9151 49.2732 45.4907 49.2416C49.7846 48.9212 53.7987 46.9897 56.7285 43.8343C59.6584 40.6789 61.2874 36.5329 61.2891 32.227Z" fill="#2F2E41"/>
<path d="M66.8399 86.0269C68.9622 86.0269 70.6827 83.7329 70.6827 80.9031C70.6827 78.0733 68.9622 75.7793 66.8399 75.7793C64.7176 75.7793 62.9971 78.0733 62.9971 80.9031C62.9971 83.7329 64.7176 86.0269 66.8399 86.0269Z" fill="#FFB8B8"/>
<path d="M550.751 477.845H284.879L228.578 211.694H180.529V199.752H238.258L294.559 465.902H550.751V477.845Z" fill="#3F3D56"/>
<path d="M323.841 526.468C337.975 526.468 349.432 515.01 349.432 500.877C349.432 486.743 337.975 475.285 323.841 475.285C309.707 475.285 298.25 486.743 298.25 500.877C298.25 515.01 309.707 526.468 323.841 526.468Z" fill="#3F3D56"/>
<path d="M514.923 526.468C529.057 526.468 540.515 515.01 540.515 500.877C540.515 486.743 529.057 475.285 514.923 475.285C500.79 475.285 489.332 486.743 489.332 500.877C489.332 515.01 500.79 526.468 514.923 526.468Z" fill="#3F3D56"/>
<path d="M545.904 472.221H287.225L241.584 246.669H588.735C590.507 246.669 592.257 247.053 593.866 247.794C595.475 248.535 596.904 249.616 598.056 250.962C599.207 252.309 600.053 253.888 600.536 255.593C601.018 257.297 601.126 259.086 600.851 260.836L558.018 461.861C557.576 464.753 556.11 467.39 553.886 469.292C551.662 471.194 548.83 472.233 545.904 472.221ZM290.034 468.809H545.904C548.015 468.817 550.06 468.067 551.665 466.695C553.269 465.322 554.327 463.419 554.646 461.331L597.479 260.306C597.678 259.043 597.6 257.752 597.252 256.522C596.904 255.291 596.293 254.151 595.463 253.179C594.632 252.208 593.6 251.428 592.439 250.893C591.277 250.358 590.014 250.081 588.735 250.081H245.726L290.034 468.809Z" fill="#3F3D56"/>
<path d="M337.513 471.499L307.623 248.653L310.989 248.097L340.879 470.943L337.513 471.499Z" fill="#3F3D56"/>
<path d="M503.712 469.788L500.343 469.242L529.36 248.102L532.729 248.648L503.712 469.788Z" fill="#3F3D56"/>
<path d="M424.527 248.375H421.115V471.221H424.527V248.375Z" fill="#3F3D56"/>
<path d="M259.014 308.088L259.005 311.5L589.3 312.3L589.308 308.888L259.014 308.088Z" fill="#3F3D56"/>
<path d="M566 413.494L275.829 415.478L275.852 418.89L566.024 416.906L566 413.494Z" fill="#3F3D56"/>
<path d="M185.647 214.253C196.012 214.253 204.414 209.67 204.414 204.017C204.414 198.363 196.012 193.78 185.647 193.78C175.283 193.78 166.88 198.363 166.88 204.017C166.88 209.67 175.283 214.253 185.647 214.253Z" fill="#3F3D56"/>
</g>
<defs>
<clipPath id="clip0_129_82">
<rect width="601" height="534" fill="white"/>
</clipPath>
</defs>
</svg>
